<mxfile host="Electron" agent="Mozilla/5.0 (Windows NT 10.0; Win64; x64) AppleWebKit/537.36 (KHTML, like Gecko) draw.io/24.7.8 Chrome/128.0.6613.36 Electron/32.0.1 Safari/537.36" version="24.7.8">
  <diagram name="Página-1" id="XuGl_REhUYu7TFIuL158">
    <mxGraphModel dx="1290" dy="621" grid="0" gridSize="10" guides="1" tooltips="1" connect="1" arrows="1" fold="1" page="1" pageScale="1" pageWidth="827" pageHeight="1169" math="0" shadow="0">
      <root>
        <mxCell id="0" />
        <mxCell id="1" parent="0" />
        <mxCell id="OFrkmYa5JyK4ACd1o3xO-18" value="Reconocimiento De Plantas Medicinales&amp;nbsp;" style="swimlane;whiteSpace=wrap;html=1;" parent="1" vertex="1">
          <mxGeometry x="167" y="4" width="556" height="913" as="geometry" />
        </mxCell>
        <mxCell id="OFrkmYa5JyK4ACd1o3xO-7" value="Login" style="ellipse;whiteSpace=wrap;html=1;" parent="OFrkmYa5JyK4ACd1o3xO-18" vertex="1">
          <mxGeometry x="218" y="40" width="120" height="80" as="geometry" />
        </mxCell>
        <mxCell id="OFrkmYa5JyK4ACd1o3xO-8" value="Pagina Principal" style="ellipse;whiteSpace=wrap;html=1;" parent="OFrkmYa5JyK4ACd1o3xO-18" vertex="1">
          <mxGeometry x="218" y="169" width="120" height="80" as="geometry" />
        </mxCell>
        <mxCell id="OFrkmYa5JyK4ACd1o3xO-9" value="Catalogo de plantas" style="ellipse;whiteSpace=wrap;html=1;" parent="OFrkmYa5JyK4ACd1o3xO-18" vertex="1">
          <mxGeometry x="360" y="295" width="120" height="80" as="geometry" />
        </mxCell>
        <mxCell id="OFrkmYa5JyK4ACd1o3xO-15" value="Escaneo" style="ellipse;whiteSpace=wrap;html=1;" parent="OFrkmYa5JyK4ACd1o3xO-18" vertex="1">
          <mxGeometry x="66" y="295" width="120" height="80" as="geometry" />
        </mxCell>
        <mxCell id="OFrkmYa5JyK4ACd1o3xO-10" value="escanerar planta" style="ellipse;whiteSpace=wrap;html=1;" parent="OFrkmYa5JyK4ACd1o3xO-18" vertex="1">
          <mxGeometry x="66" y="427" width="120" height="80" as="geometry" />
        </mxCell>
        <mxCell id="OFrkmYa5JyK4ACd1o3xO-11" value="Planta Medicinal" style="ellipse;whiteSpace=wrap;html=1;" parent="OFrkmYa5JyK4ACd1o3xO-18" vertex="1">
          <mxGeometry x="258" y="422" width="121" height="93" as="geometry" />
        </mxCell>
        <mxCell id="OFrkmYa5JyK4ACd1o3xO-12" value="Planta peligrosa" style="ellipse;whiteSpace=wrap;html=1;" parent="OFrkmYa5JyK4ACd1o3xO-18" vertex="1">
          <mxGeometry x="425" y="428.5" width="120" height="80" as="geometry" />
        </mxCell>
        <mxCell id="OFrkmYa5JyK4ACd1o3xO-17" value="Identificar Planta" style="ellipse;whiteSpace=wrap;html=1;" parent="OFrkmYa5JyK4ACd1o3xO-18" vertex="1">
          <mxGeometry x="66" y="565" width="120" height="80" as="geometry" />
        </mxCell>
        <mxCell id="OFrkmYa5JyK4ACd1o3xO-21" value="" style="endArrow=classic;html=1;rounded=0;entryX=0.5;entryY=0;entryDx=0;entryDy=0;exitX=0.5;exitY=1;exitDx=0;exitDy=0;" parent="OFrkmYa5JyK4ACd1o3xO-18" source="OFrkmYa5JyK4ACd1o3xO-7" target="OFrkmYa5JyK4ACd1o3xO-8" edge="1">
          <mxGeometry width="50" height="50" relative="1" as="geometry">
            <mxPoint x="154" y="199" as="sourcePoint" />
            <mxPoint x="204" y="149" as="targetPoint" />
          </mxGeometry>
        </mxCell>
        <mxCell id="OFrkmYa5JyK4ACd1o3xO-22" value="" style="endArrow=classic;html=1;rounded=0;exitX=0.5;exitY=1;exitDx=0;exitDy=0;entryX=0.5;entryY=0;entryDx=0;entryDy=0;" parent="OFrkmYa5JyK4ACd1o3xO-18" source="OFrkmYa5JyK4ACd1o3xO-8" target="OFrkmYa5JyK4ACd1o3xO-15" edge="1">
          <mxGeometry width="50" height="50" relative="1" as="geometry">
            <mxPoint x="-76" y="352" as="sourcePoint" />
            <mxPoint x="-26" y="302" as="targetPoint" />
          </mxGeometry>
        </mxCell>
        <mxCell id="OFrkmYa5JyK4ACd1o3xO-23" value="" style="endArrow=classic;html=1;rounded=0;exitX=0.5;exitY=1;exitDx=0;exitDy=0;entryX=0.5;entryY=0;entryDx=0;entryDy=0;" parent="OFrkmYa5JyK4ACd1o3xO-18" source="OFrkmYa5JyK4ACd1o3xO-8" target="OFrkmYa5JyK4ACd1o3xO-9" edge="1">
          <mxGeometry width="50" height="50" relative="1" as="geometry">
            <mxPoint x="336" y="311" as="sourcePoint" />
            <mxPoint x="386" y="261" as="targetPoint" />
          </mxGeometry>
        </mxCell>
        <mxCell id="OFrkmYa5JyK4ACd1o3xO-24" value="" style="endArrow=classic;html=1;rounded=0;exitX=0.5;exitY=1;exitDx=0;exitDy=0;entryX=0.5;entryY=0;entryDx=0;entryDy=0;" parent="OFrkmYa5JyK4ACd1o3xO-18" source="OFrkmYa5JyK4ACd1o3xO-15" target="OFrkmYa5JyK4ACd1o3xO-10" edge="1">
          <mxGeometry width="50" height="50" relative="1" as="geometry">
            <mxPoint x="191" y="605" as="sourcePoint" />
            <mxPoint x="241" y="555" as="targetPoint" />
          </mxGeometry>
        </mxCell>
        <mxCell id="OFrkmYa5JyK4ACd1o3xO-25" value="" style="endArrow=classic;html=1;rounded=0;exitX=0.5;exitY=1;exitDx=0;exitDy=0;entryX=0.5;entryY=0;entryDx=0;entryDy=0;" parent="OFrkmYa5JyK4ACd1o3xO-18" source="OFrkmYa5JyK4ACd1o3xO-10" target="OFrkmYa5JyK4ACd1o3xO-17" edge="1">
          <mxGeometry width="50" height="50" relative="1" as="geometry">
            <mxPoint x="423" y="708" as="sourcePoint" />
            <mxPoint x="473" y="658" as="targetPoint" />
          </mxGeometry>
        </mxCell>
        <mxCell id="OFrkmYa5JyK4ACd1o3xO-26" value="" style="endArrow=classic;html=1;rounded=0;exitX=0.5;exitY=1;exitDx=0;exitDy=0;entryX=0.5;entryY=0;entryDx=0;entryDy=0;" parent="OFrkmYa5JyK4ACd1o3xO-18" source="OFrkmYa5JyK4ACd1o3xO-9" target="OFrkmYa5JyK4ACd1o3xO-11" edge="1">
          <mxGeometry width="50" height="50" relative="1" as="geometry">
            <mxPoint x="349" y="581" as="sourcePoint" />
            <mxPoint x="399" y="531" as="targetPoint" />
          </mxGeometry>
        </mxCell>
        <mxCell id="OFrkmYa5JyK4ACd1o3xO-27" value="" style="endArrow=classic;html=1;rounded=0;exitX=0.5;exitY=1;exitDx=0;exitDy=0;entryX=0.5;entryY=0;entryDx=0;entryDy=0;" parent="OFrkmYa5JyK4ACd1o3xO-18" source="OFrkmYa5JyK4ACd1o3xO-9" target="OFrkmYa5JyK4ACd1o3xO-12" edge="1">
          <mxGeometry width="50" height="50" relative="1" as="geometry">
            <mxPoint x="399" y="600" as="sourcePoint" />
            <mxPoint x="449" y="550" as="targetPoint" />
          </mxGeometry>
        </mxCell>
        <mxCell id="OFrkmYa5JyK4ACd1o3xO-28" value="Gestionar Base De Datos De Plantas" style="ellipse;whiteSpace=wrap;html=1;" parent="OFrkmYa5JyK4ACd1o3xO-18" vertex="1">
          <mxGeometry x="277" y="642" width="120" height="80" as="geometry" />
        </mxCell>
        <mxCell id="OFrkmYa5JyK4ACd1o3xO-29" value="Revisar Retroalimentación De Usuarios" style="ellipse;whiteSpace=wrap;html=1;" parent="OFrkmYa5JyK4ACd1o3xO-18" vertex="1">
          <mxGeometry x="277" y="786" width="120" height="80" as="geometry" />
        </mxCell>
        <mxCell id="OFrkmYa5JyK4ACd1o3xO-31" value="" style="endArrow=classic;html=1;rounded=0;exitX=0.5;exitY=1;exitDx=0;exitDy=0;entryX=0.5;entryY=0;entryDx=0;entryDy=0;" parent="OFrkmYa5JyK4ACd1o3xO-18" source="OFrkmYa5JyK4ACd1o3xO-28" target="OFrkmYa5JyK4ACd1o3xO-29" edge="1">
          <mxGeometry width="50" height="50" relative="1" as="geometry">
            <mxPoint x="258" y="926" as="sourcePoint" />
            <mxPoint x="308" y="876" as="targetPoint" />
          </mxGeometry>
        </mxCell>
        <mxCell id="OFrkmYa5JyK4ACd1o3xO-1" value="Actor" style="shape=umlActor;verticalLabelPosition=bottom;verticalAlign=top;html=1;outlineConnect=0;" parent="1" vertex="1">
          <mxGeometry x="79" y="188" width="30" height="60" as="geometry" />
        </mxCell>
        <mxCell id="OFrkmYa5JyK4ACd1o3xO-2" value="Actor" style="shape=umlActor;verticalLabelPosition=bottom;verticalAlign=top;html=1;outlineConnect=0;" parent="1" vertex="1">
          <mxGeometry x="766" y="825" width="30" height="60" as="geometry" />
        </mxCell>
        <mxCell id="OFrkmYa5JyK4ACd1o3xO-6" value="Usuario General" style="text;html=1;align=center;verticalAlign=middle;resizable=0;points=[];autosize=1;strokeColor=none;fillColor=none;" parent="1" vertex="1">
          <mxGeometry x="41.5" y="157" width="105" height="26" as="geometry" />
        </mxCell>
        <mxCell id="OFrkmYa5JyK4ACd1o3xO-14" value="Administrador" style="text;html=1;align=center;verticalAlign=middle;resizable=0;points=[];autosize=1;strokeColor=none;fillColor=none;" parent="1" vertex="1">
          <mxGeometry x="730" y="787" width="92" height="26" as="geometry" />
        </mxCell>
        <mxCell id="OFrkmYa5JyK4ACd1o3xO-20" value="" style="endArrow=classic;html=1;rounded=0;exitX=1;exitY=0.3333333333333333;exitDx=0;exitDy=0;exitPerimeter=0;entryX=0;entryY=0.5;entryDx=0;entryDy=0;" parent="1" source="OFrkmYa5JyK4ACd1o3xO-1" target="OFrkmYa5JyK4ACd1o3xO-7" edge="1">
          <mxGeometry width="50" height="50" relative="1" as="geometry">
            <mxPoint x="241" y="193" as="sourcePoint" />
            <mxPoint x="291" y="143" as="targetPoint" />
          </mxGeometry>
        </mxCell>
        <mxCell id="OFrkmYa5JyK4ACd1o3xO-30" value="" style="endArrow=classic;html=1;rounded=0;exitX=0;exitY=0.3333333333333333;exitDx=0;exitDy=0;exitPerimeter=0;entryX=1;entryY=0.5;entryDx=0;entryDy=0;" parent="1" source="OFrkmYa5JyK4ACd1o3xO-2" target="OFrkmYa5JyK4ACd1o3xO-28" edge="1">
          <mxGeometry width="50" height="50" relative="1" as="geometry">
            <mxPoint x="574" y="887" as="sourcePoint" />
            <mxPoint x="624" y="837" as="targetPoint" />
          </mxGeometry>
        </mxCell>
      </root>
    </mxGraphModel>
  </diagram>
</mxfile>
